<svg xmlns="http://www.w3.org/2000/svg" width="516.5" height="328.5"><defs><filter filterUnits="userSpaceOnUse" id="a" x="0" y="0" width="516" height="328"><feOffset in="SourceAlpha"/><feGaussianBlur result="blurOut" stdDeviation="9.327"/><feFlood flood-color="#222425" result="floodOut"/><feComposite operator="atop" in="floodOut" in2="blurOut"/><feComponentTransfer><feFuncA type="linear" slope=".08"/></feComponentTransfer><feMerge><feMergeNode/><feMergeNode in="SourceGraphic"/></feMerge></filter><filter filterUnits="userSpaceOnUse" id="b" x="6" y="6" width="504" height="316"><feOffset in="SourceAlpha"/><feGaussianBlur result="blurOut" stdDeviation="9.327"/><feFlood flood-color="#222425" result="floodOut"/><feComposite operator="atop" in="floodOut" in2="blurOut"/><feComponentTransfer><feFuncA type="linear" slope=".08"/></feComponentTransfer><feMerge><feMergeNode/><feMergeNode in="SourceGraphic"/></feMerge></filter></defs><path fill-rule="evenodd" fill="#FFF" d="M96.628 85.999l322.71 33.838c5.336 0 9.662 4.048 9.662 9.041v103.079c0 4.994-4.326 9.041-9.662 9.041H95.662c-5.336 0-9.662-4.047-9.662-9.041l.966-136.917c0-4.993 4.326-9.041 9.662-9.041z" filter="url(#a)"/><path stroke="#585B6A" stroke-dasharray="4, 2" opacity=".2" fill="none" d="M98.027 93.043l318.945 33a5 5 0 0 1 5 5v97.912a4.999 4.999 0 0 1-5 4.999H98.027a5 5 0 0 1-5-4.999V98.043a5 5 0 0 1 5-5z" filter="url(#b)"/></svg>